<mxfile host="65bd71144e">
    <diagram id="VkH_d1G-JnaeZqNSBX4_" name="第 1 页">
        <mxGraphModel dx="1259" dy="648" grid="1" gridSize="10" guides="1" tooltips="1" connect="1" arrows="1" fold="1" page="1" pageScale="1" pageWidth="827" pageHeight="1169" math="0" shadow="0">
            <root>
                <mxCell id="0"/>
                <mxCell id="1" parent="0"/>
                <mxCell id="2" value="U" style="ellipse;whiteSpace=wrap;html=1;aspect=fixed;fontSize=22;fillColor=#4D4D4D;strokeColor=#4D4D4D;fontColor=#FFFFFF;" parent="1" vertex="1">
                    <mxGeometry x="640" y="240" width="40" height="40" as="geometry"/>
                </mxCell>
                <mxCell id="15" style="edgeStyle=none;html=1;entryX=0.5;entryY=0;entryDx=0;entryDy=0;" parent="1" source="3" target="9" edge="1">
                    <mxGeometry relative="1" as="geometry"/>
                </mxCell>
                <mxCell id="3" value="P" style="ellipse;whiteSpace=wrap;html=1;aspect=fixed;fontSize=22;fillColor=#4D4D4D;strokeColor=#4D4D4D;fontColor=#FFFFFF;" parent="1" vertex="1">
                    <mxGeometry x="560" y="240" width="40" height="40" as="geometry"/>
                </mxCell>
                <mxCell id="13" style="edgeStyle=none;html=1;entryX=0.5;entryY=0;entryDx=0;entryDy=0;" parent="1" source="4" target="3" edge="1">
                    <mxGeometry relative="1" as="geometry"/>
                </mxCell>
                <mxCell id="14" style="edgeStyle=none;html=1;entryX=0.5;entryY=0;entryDx=0;entryDy=0;" parent="1" source="4" target="2" edge="1">
                    <mxGeometry relative="1" as="geometry"/>
                </mxCell>
                <mxCell id="4" value="G" style="ellipse;whiteSpace=wrap;html=1;aspect=fixed;fontSize=22;fillColor=#e51400;strokeColor=#FF3333;fontColor=#ffffff;" parent="1" vertex="1">
                    <mxGeometry x="600" y="160" width="40" height="40" as="geometry"/>
                </mxCell>
                <mxCell id="5" value="N" style="ellipse;whiteSpace=wrap;html=1;aspect=fixed;fontSize=22;fillColor=#e51400;strokeColor=#FF3333;fontColor=#ffffff;" parent="1" vertex="1">
                    <mxGeometry x="280" y="320" width="40" height="40" as="geometry"/>
                </mxCell>
                <mxCell id="6" value="U" style="ellipse;whiteSpace=wrap;html=1;aspect=fixed;fontSize=22;fillColor=#e51400;strokeColor=#FF3333;fontColor=#ffffff;" parent="1" vertex="1">
                    <mxGeometry x="400" y="240" width="40" height="40" as="geometry"/>
                </mxCell>
                <mxCell id="11" style="edgeStyle=none;html=1;entryX=0.5;entryY=0;entryDx=0;entryDy=0;" parent="1" source="7" target="5" edge="1">
                    <mxGeometry relative="1" as="geometry"/>
                </mxCell>
                <mxCell id="7" value="P" style="ellipse;whiteSpace=wrap;html=1;aspect=fixed;fontSize=22;fillColor=#e51400;strokeColor=#FF3333;fontColor=#ffffff;" parent="1" vertex="1">
                    <mxGeometry x="320" y="240" width="40" height="40" as="geometry"/>
                </mxCell>
                <mxCell id="10" style="edgeStyle=none;html=1;entryX=0.5;entryY=0;entryDx=0;entryDy=0;" parent="1" source="8" target="7" edge="1">
                    <mxGeometry relative="1" as="geometry"/>
                </mxCell>
                <mxCell id="12" style="edgeStyle=none;html=1;entryX=0.5;entryY=0;entryDx=0;entryDy=0;" parent="1" source="8" target="6" edge="1">
                    <mxGeometry relative="1" as="geometry"/>
                </mxCell>
                <mxCell id="8" value="G" style="ellipse;whiteSpace=wrap;html=1;aspect=fixed;fontSize=22;fillColor=#4D4D4D;strokeColor=#4D4D4D;fontColor=#FFFFFF;" parent="1" vertex="1">
                    <mxGeometry x="360" y="160" width="40" height="40" as="geometry"/>
                </mxCell>
                <mxCell id="9" value="N" style="ellipse;whiteSpace=wrap;html=1;aspect=fixed;fontSize=22;fillColor=#e51400;strokeColor=#FF3333;fontColor=#ffffff;" parent="1" vertex="1">
                    <mxGeometry x="520" y="320" width="40" height="40" as="geometry"/>
                </mxCell>
                <mxCell id="16" value="" style="shape=flexArrow;endArrow=classic;html=1;fontColor=#FFFFFF;fillColor=#bac8d3;strokeColor=#23445d;" edge="1" parent="1">
                    <mxGeometry width="50" height="50" relative="1" as="geometry">
                        <mxPoint x="470" y="240" as="sourcePoint"/>
                        <mxPoint x="540" y="240" as="targetPoint"/>
                    </mxGeometry>
                </mxCell>
                <mxCell id="17" value="U" style="ellipse;whiteSpace=wrap;html=1;aspect=fixed;fontSize=22;fillColor=#4D4D4D;strokeColor=#4D4D4D;fontColor=#FFFFFF;" vertex="1" parent="1">
                    <mxGeometry x="640" y="520" width="40" height="40" as="geometry"/>
                </mxCell>
                <mxCell id="18" style="edgeStyle=none;html=1;entryX=0.5;entryY=0;entryDx=0;entryDy=0;" edge="1" parent="1" source="19" target="30">
                    <mxGeometry relative="1" as="geometry"/>
                </mxCell>
                <mxCell id="35" style="edgeStyle=none;html=1;entryX=0.5;entryY=0;entryDx=0;entryDy=0;fontColor=#FFFFFF;strokeWidth=1;dashed=1;" edge="1" parent="1" source="19" target="34">
                    <mxGeometry relative="1" as="geometry"/>
                </mxCell>
                <mxCell id="36" style="edgeStyle=none;html=1;entryX=0;entryY=0.5;entryDx=0;entryDy=0;fontColor=#FFFFFF;strokeWidth=2;" edge="1" parent="1" source="19" target="22">
                    <mxGeometry relative="1" as="geometry">
                        <Array as="points">
                            <mxPoint x="580" y="490"/>
                        </Array>
                    </mxGeometry>
                </mxCell>
                <mxCell id="19" value="P" style="ellipse;whiteSpace=wrap;html=1;aspect=fixed;fontSize=22;fillColor=#4D4D4D;strokeColor=#4D4D4D;fontColor=#FFFFFF;" vertex="1" parent="1">
                    <mxGeometry x="560" y="520" width="40" height="40" as="geometry"/>
                </mxCell>
                <mxCell id="20" style="edgeStyle=none;html=1;entryX=0.5;entryY=0;entryDx=0;entryDy=0;dashed=1;" edge="1" parent="1" source="22" target="19">
                    <mxGeometry relative="1" as="geometry"/>
                </mxCell>
                <mxCell id="21" style="edgeStyle=none;html=1;entryX=0.5;entryY=0;entryDx=0;entryDy=0;" edge="1" parent="1" source="22" target="17">
                    <mxGeometry relative="1" as="geometry"/>
                </mxCell>
                <mxCell id="37" style="edgeStyle=none;html=1;entryX=0.5;entryY=0;entryDx=0;entryDy=0;fontColor=#FFFFFF;strokeWidth=2;" edge="1" parent="1" source="22" target="34">
                    <mxGeometry relative="1" as="geometry"/>
                </mxCell>
                <mxCell id="22" value="G" style="ellipse;whiteSpace=wrap;html=1;aspect=fixed;fontSize=22;fillColor=#e51400;strokeColor=#FF3333;fontColor=#ffffff;" vertex="1" parent="1">
                    <mxGeometry x="600" y="440" width="40" height="40" as="geometry"/>
                </mxCell>
                <mxCell id="23" value="N" style="ellipse;whiteSpace=wrap;html=1;aspect=fixed;fontSize=22;fillColor=#e51400;strokeColor=#FF3333;fontColor=#ffffff;" vertex="1" parent="1">
                    <mxGeometry x="280" y="600" width="40" height="40" as="geometry"/>
                </mxCell>
                <mxCell id="24" value="U" style="ellipse;whiteSpace=wrap;html=1;aspect=fixed;fontSize=22;fillColor=#e51400;strokeColor=#FF3333;fontColor=#ffffff;" vertex="1" parent="1">
                    <mxGeometry x="400" y="520" width="40" height="40" as="geometry"/>
                </mxCell>
                <mxCell id="25" style="edgeStyle=none;html=1;entryX=0.5;entryY=0;entryDx=0;entryDy=0;" edge="1" parent="1" source="26" target="23">
                    <mxGeometry relative="1" as="geometry"/>
                </mxCell>
                <mxCell id="33" style="edgeStyle=none;html=1;entryX=0.5;entryY=0;entryDx=0;entryDy=0;fontColor=#FFFFFF;" edge="1" parent="1" source="26" target="32">
                    <mxGeometry relative="1" as="geometry"/>
                </mxCell>
                <mxCell id="26" value="P" style="ellipse;whiteSpace=wrap;html=1;aspect=fixed;fontSize=22;fillColor=#e51400;strokeColor=#FF3333;fontColor=#ffffff;" vertex="1" parent="1">
                    <mxGeometry x="320" y="520" width="40" height="40" as="geometry"/>
                </mxCell>
                <mxCell id="27" style="edgeStyle=none;html=1;entryX=0.5;entryY=0;entryDx=0;entryDy=0;" edge="1" parent="1" source="29" target="26">
                    <mxGeometry relative="1" as="geometry"/>
                </mxCell>
                <mxCell id="28" style="edgeStyle=none;html=1;entryX=0.5;entryY=0;entryDx=0;entryDy=0;" edge="1" parent="1" source="29" target="24">
                    <mxGeometry relative="1" as="geometry"/>
                </mxCell>
                <mxCell id="29" value="G" style="ellipse;whiteSpace=wrap;html=1;aspect=fixed;fontSize=22;fillColor=#4D4D4D;strokeColor=#6c8ebf;fontColor=#FFFFFF;" vertex="1" parent="1">
                    <mxGeometry x="360" y="440" width="40" height="40" as="geometry"/>
                </mxCell>
                <mxCell id="30" value="N" style="ellipse;whiteSpace=wrap;html=1;aspect=fixed;fontSize=22;fillColor=#e51400;strokeColor=#FF3333;fontColor=#ffffff;" vertex="1" parent="1">
                    <mxGeometry x="520" y="600" width="40" height="40" as="geometry"/>
                </mxCell>
                <mxCell id="31" value="" style="shape=flexArrow;endArrow=classic;html=1;fontColor=#FFFFFF;fillColor=#bac8d3;strokeColor=#23445d;" edge="1" parent="1">
                    <mxGeometry width="50" height="50" relative="1" as="geometry">
                        <mxPoint x="470" y="520" as="sourcePoint"/>
                        <mxPoint x="540" y="520" as="targetPoint"/>
                    </mxGeometry>
                </mxCell>
                <mxCell id="32" value="B" style="ellipse;whiteSpace=wrap;html=1;aspect=fixed;fontSize=22;fillColor=#4D4D4D;strokeColor=#6c8ebf;fontColor=#FFFFFF;" vertex="1" parent="1">
                    <mxGeometry x="360" y="600" width="40" height="40" as="geometry"/>
                </mxCell>
                <mxCell id="34" value="U" style="ellipse;whiteSpace=wrap;html=1;aspect=fixed;fontSize=22;fillColor=#4D4D4D;strokeColor=#4D4D4D;fontColor=#FFFFFF;" vertex="1" parent="1">
                    <mxGeometry x="600" y="600" width="40" height="40" as="geometry"/>
                </mxCell>
                <mxCell id="40" value="N" style="ellipse;whiteSpace=wrap;html=1;aspect=fixed;fontSize=22;fillColor=#e51400;strokeColor=#FF3333;fontColor=#ffffff;" vertex="1" parent="1">
                    <mxGeometry x="800" y="520" width="40" height="40" as="geometry"/>
                </mxCell>
                <mxCell id="41" value="U" style="ellipse;whiteSpace=wrap;html=1;aspect=fixed;fontSize=22;fillColor=#e51400;strokeColor=#FF3333;fontColor=#ffffff;" vertex="1" parent="1">
                    <mxGeometry x="920" y="600" width="40" height="40" as="geometry"/>
                </mxCell>
                <mxCell id="52" style="edgeStyle=none;html=1;entryX=0.5;entryY=0;entryDx=0;entryDy=0;fontColor=#FFFFFF;strokeWidth=1;" edge="1" parent="1" source="44" target="48">
                    <mxGeometry relative="1" as="geometry"/>
                </mxCell>
                <mxCell id="53" style="edgeStyle=none;html=1;entryX=0.5;entryY=0;entryDx=0;entryDy=0;fontColor=#FFFFFF;strokeWidth=1;" edge="1" parent="1" source="44" target="41">
                    <mxGeometry relative="1" as="geometry"/>
                </mxCell>
                <mxCell id="44" value="G" style="ellipse;whiteSpace=wrap;html=1;aspect=fixed;fontSize=22;fillColor=#e51400;strokeColor=#FF3333;fontColor=#ffffff;" vertex="1" parent="1">
                    <mxGeometry x="880" y="520" width="40" height="40" as="geometry"/>
                </mxCell>
                <mxCell id="49" style="edgeStyle=none;html=1;entryX=0.5;entryY=0;entryDx=0;entryDy=0;fontColor=#FFFFFF;strokeWidth=1;" edge="1" parent="1" source="47" target="40">
                    <mxGeometry relative="1" as="geometry"/>
                </mxCell>
                <mxCell id="51" style="edgeStyle=none;html=1;entryX=0.5;entryY=0;entryDx=0;entryDy=0;fontColor=#FFFFFF;strokeWidth=1;" edge="1" parent="1" source="47" target="44">
                    <mxGeometry relative="1" as="geometry"/>
                </mxCell>
                <mxCell id="47" value="P" style="ellipse;whiteSpace=wrap;html=1;aspect=fixed;fontSize=22;fillColor=#4D4D4D;strokeColor=#4D4D4D;fontColor=#FFFFFF;" vertex="1" parent="1">
                    <mxGeometry x="840" y="440" width="40" height="40" as="geometry"/>
                </mxCell>
                <mxCell id="48" value="B" style="ellipse;whiteSpace=wrap;html=1;aspect=fixed;fontSize=22;fillColor=#4D4D4D;strokeColor=#4D4D4D;fontColor=#FFFFFF;" vertex="1" parent="1">
                    <mxGeometry x="840" y="600" width="40" height="40" as="geometry"/>
                </mxCell>
                <mxCell id="54" value="" style="shape=flexArrow;endArrow=classic;html=1;fontColor=#FFFFFF;fillColor=#bac8d3;strokeColor=#23445d;" edge="1" parent="1">
                    <mxGeometry width="50" height="50" relative="1" as="geometry">
                        <mxPoint x="710" y="519.1699999999998" as="sourcePoint"/>
                        <mxPoint x="780" y="519.1699999999998" as="targetPoint"/>
                    </mxGeometry>
                </mxCell>
                <mxCell id="55" value="N" style="ellipse;whiteSpace=wrap;html=1;aspect=fixed;fontSize=22;fillColor=#e51400;strokeColor=#FF3333;fontColor=#ffffff;" vertex="1" parent="1">
                    <mxGeometry x="360" y="880" width="40" height="40" as="geometry"/>
                </mxCell>
                <mxCell id="56" value="U" style="ellipse;whiteSpace=wrap;html=1;aspect=fixed;fontSize=22;fillColor=#e51400;strokeColor=#FF3333;fontColor=#ffffff;" vertex="1" parent="1">
                    <mxGeometry x="400" y="800" width="40" height="40" as="geometry"/>
                </mxCell>
                <mxCell id="74" style="edgeStyle=none;html=1;entryX=0.5;entryY=0;entryDx=0;entryDy=0;fontColor=#FFFFFF;strokeWidth=1;" edge="1" parent="1" source="59" target="63">
                    <mxGeometry relative="1" as="geometry"/>
                </mxCell>
                <mxCell id="75" style="edgeStyle=none;html=1;entryX=0.5;entryY=0;entryDx=0;entryDy=0;fontColor=#FFFFFF;strokeWidth=1;" edge="1" parent="1" source="59" target="55">
                    <mxGeometry relative="1" as="geometry"/>
                </mxCell>
                <mxCell id="59" value="P" style="ellipse;whiteSpace=wrap;html=1;aspect=fixed;fontSize=22;fillColor=#e51400;strokeColor=#FF3333;fontColor=#ffffff;" vertex="1" parent="1">
                    <mxGeometry x="320" y="800" width="40" height="40" as="geometry"/>
                </mxCell>
                <mxCell id="60" style="edgeStyle=none;html=1;entryX=0.5;entryY=0;entryDx=0;entryDy=0;" edge="1" parent="1" source="62" target="59">
                    <mxGeometry relative="1" as="geometry"/>
                </mxCell>
                <mxCell id="61" style="edgeStyle=none;html=1;entryX=0.5;entryY=0;entryDx=0;entryDy=0;" edge="1" parent="1" source="62" target="56">
                    <mxGeometry relative="1" as="geometry"/>
                </mxCell>
                <mxCell id="62" value="G" style="ellipse;whiteSpace=wrap;html=1;aspect=fixed;fontSize=22;fillColor=#4D4D4D;strokeColor=#6c8ebf;fontColor=#FFFFFF;" vertex="1" parent="1">
                    <mxGeometry x="360" y="720" width="40" height="40" as="geometry"/>
                </mxCell>
                <mxCell id="63" value="B" style="ellipse;whiteSpace=wrap;html=1;aspect=fixed;fontSize=22;fillColor=#4D4D4D;strokeColor=#4D4D4D;fontColor=#FFFFFF;" vertex="1" parent="1">
                    <mxGeometry x="280" y="880" width="40" height="40" as="geometry"/>
                </mxCell>
                <mxCell id="64" value="" style="shape=flexArrow;endArrow=classic;html=1;fontColor=#FFFFFF;fillColor=#bac8d3;strokeColor=#23445d;" edge="1" parent="1">
                    <mxGeometry width="50" height="50" relative="1" as="geometry">
                        <mxPoint x="470" y="798.46" as="sourcePoint"/>
                        <mxPoint x="540" y="798.46" as="targetPoint"/>
                    </mxGeometry>
                </mxCell>
                <mxCell id="77" style="edgeStyle=none;html=1;entryX=0.5;entryY=0;entryDx=0;entryDy=0;fontColor=#FFFFFF;strokeWidth=1;" edge="1" parent="1" source="65" target="69">
                    <mxGeometry relative="1" as="geometry"/>
                </mxCell>
                <mxCell id="65" value="N" style="ellipse;whiteSpace=wrap;html=1;aspect=fixed;fontSize=22;fillColor=#e51400;strokeColor=#FF3333;fontColor=#ffffff;" vertex="1" parent="1">
                    <mxGeometry x="560" y="800" width="40" height="40" as="geometry"/>
                </mxCell>
                <mxCell id="66" value="U" style="ellipse;whiteSpace=wrap;html=1;aspect=fixed;fontSize=22;fillColor=#e51400;strokeColor=#FF3333;fontColor=#ffffff;" vertex="1" parent="1">
                    <mxGeometry x="640" y="800" width="40" height="40" as="geometry"/>
                </mxCell>
                <mxCell id="78" style="edgeStyle=none;html=1;entryX=0.5;entryY=0;entryDx=0;entryDy=0;fontColor=#FFFFFF;strokeWidth=1;" edge="1" parent="1" source="69" target="73">
                    <mxGeometry relative="1" as="geometry"/>
                </mxCell>
                <mxCell id="69" value="P" style="ellipse;whiteSpace=wrap;html=1;aspect=fixed;fontSize=22;fillColor=#e51400;strokeColor=#FF3333;fontColor=#ffffff;" vertex="1" parent="1">
                    <mxGeometry x="520" y="880" width="40" height="40" as="geometry"/>
                </mxCell>
                <mxCell id="71" style="edgeStyle=none;html=1;entryX=0.5;entryY=0;entryDx=0;entryDy=0;" edge="1" parent="1" source="72" target="66">
                    <mxGeometry relative="1" as="geometry"/>
                </mxCell>
                <mxCell id="76" style="edgeStyle=none;html=1;entryX=0.5;entryY=0;entryDx=0;entryDy=0;fontColor=#FFFFFF;strokeWidth=1;" edge="1" parent="1" source="72" target="65">
                    <mxGeometry relative="1" as="geometry"/>
                </mxCell>
                <mxCell id="72" value="G" style="ellipse;whiteSpace=wrap;html=1;aspect=fixed;fontSize=22;fillColor=#4D4D4D;strokeColor=#6c8ebf;fontColor=#FFFFFF;" vertex="1" parent="1">
                    <mxGeometry x="600" y="720" width="40" height="40" as="geometry"/>
                </mxCell>
                <mxCell id="73" value="B" style="ellipse;whiteSpace=wrap;html=1;aspect=fixed;fontSize=22;fillColor=#4D4D4D;strokeColor=#4D4D4D;fontColor=#FFFFFF;" vertex="1" parent="1">
                    <mxGeometry x="480" y="960" width="40" height="40" as="geometry"/>
                </mxCell>
                <mxCell id="79" value="" style="shape=flexArrow;endArrow=classic;html=1;fontColor=#FFFFFF;fillColor=#bac8d3;strokeColor=#23445d;" edge="1" parent="1">
                    <mxGeometry width="50" height="50" relative="1" as="geometry">
                        <mxPoint x="710" y="799.13" as="sourcePoint"/>
                        <mxPoint x="780" y="799.13" as="targetPoint"/>
                    </mxGeometry>
                </mxCell>
                <mxCell id="89" style="edgeStyle=none;html=1;entryX=0.5;entryY=0;entryDx=0;entryDy=0;fontColor=#FFFFFF;strokeWidth=1;" edge="1" parent="1" source="81" target="84">
                    <mxGeometry relative="1" as="geometry"/>
                </mxCell>
                <mxCell id="91" style="edgeStyle=none;html=1;entryX=0.5;entryY=0;entryDx=0;entryDy=0;fontColor=#FFFFFF;strokeWidth=1;" edge="1" parent="1" source="81" target="87">
                    <mxGeometry relative="1" as="geometry"/>
                </mxCell>
                <mxCell id="81" value="N" style="ellipse;whiteSpace=wrap;html=1;aspect=fixed;fontSize=22;fillColor=#4D4D4D;strokeColor=#4D4D4D;fontColor=#ffffff;" vertex="1" parent="1">
                    <mxGeometry x="840" y="720" width="40" height="40" as="geometry"/>
                </mxCell>
                <mxCell id="82" value="U" style="ellipse;whiteSpace=wrap;html=1;aspect=fixed;fontSize=22;fillColor=#4D4D4D;strokeColor=#4D4D4D;fontColor=#ffffff;" vertex="1" parent="1">
                    <mxGeometry x="920" y="880" width="40" height="40" as="geometry"/>
                </mxCell>
                <mxCell id="90" style="edgeStyle=none;html=1;entryX=0.5;entryY=0;entryDx=0;entryDy=0;fontColor=#FFFFFF;strokeWidth=1;" edge="1" parent="1" source="84" target="88">
                    <mxGeometry relative="1" as="geometry"/>
                </mxCell>
                <mxCell id="84" value="P" style="ellipse;whiteSpace=wrap;html=1;aspect=fixed;fontSize=22;fillColor=#e51400;strokeColor=#FF3333;fontColor=#ffffff;" vertex="1" parent="1">
                    <mxGeometry x="800" y="800" width="40" height="40" as="geometry"/>
                </mxCell>
                <mxCell id="92" style="edgeStyle=none;html=1;entryX=0.5;entryY=0;entryDx=0;entryDy=0;fontColor=#FFFFFF;strokeWidth=1;" edge="1" parent="1" source="87" target="82">
                    <mxGeometry relative="1" as="geometry"/>
                </mxCell>
                <mxCell id="87" value="G" style="ellipse;whiteSpace=wrap;html=1;aspect=fixed;fontSize=22;fillColor=#e51400;strokeColor=#FF3333;fontColor=#ffffff;" vertex="1" parent="1">
                    <mxGeometry x="880" y="800" width="40" height="40" as="geometry"/>
                </mxCell>
                <mxCell id="88" value="B" style="ellipse;whiteSpace=wrap;html=1;aspect=fixed;fontSize=22;fillColor=#4D4D4D;strokeColor=#6c8ebf;fontColor=#FFFFFF;" vertex="1" parent="1">
                    <mxGeometry x="760" y="880" width="40" height="40" as="geometry"/>
                </mxCell>
                <mxCell id="93" value="U" style="ellipse;whiteSpace=wrap;html=1;aspect=fixed;fontSize=22;fillColor=#4D4D4D;strokeColor=#4D4D4D;fontColor=#ffffff;" vertex="1" parent="1">
                    <mxGeometry x="920" y="880" width="40" height="40" as="geometry"/>
                </mxCell>
                <mxCell id="94" value="N" style="ellipse;whiteSpace=wrap;html=1;aspect=fixed;fontSize=22;fillColor=#4D4D4D;strokeColor=#4D4D4D;fontColor=#ffffff;" vertex="1" parent="1">
                    <mxGeometry x="840" y="720" width="40" height="40" as="geometry"/>
                </mxCell>
                <mxCell id="95" value="B" style="ellipse;whiteSpace=wrap;html=1;aspect=fixed;fontSize=22;fillColor=#4D4D4D;strokeColor=#6c8ebf;fontColor=#FFFFFF;" vertex="1" parent="1">
                    <mxGeometry x="760" y="880" width="40" height="40" as="geometry"/>
                </mxCell>
                <mxCell id="96" value="U" style="ellipse;whiteSpace=wrap;html=1;aspect=fixed;fontSize=22;fillColor=#4D4D4D;strokeColor=#4D4D4D;fontColor=#ffffff;" vertex="1" parent="1">
                    <mxGeometry x="920" y="880" width="40" height="40" as="geometry"/>
                </mxCell>
                <mxCell id="97" value="N" style="ellipse;whiteSpace=wrap;html=1;aspect=fixed;fontSize=22;fillColor=#4D4D4D;strokeColor=#4D4D4D;fontColor=#ffffff;" vertex="1" parent="1">
                    <mxGeometry x="840" y="720" width="40" height="40" as="geometry"/>
                </mxCell>
                <mxCell id="98" value="B" style="ellipse;whiteSpace=wrap;html=1;aspect=fixed;fontSize=22;fillColor=#4D4D4D;strokeColor=#4D4D4D;fontColor=#FFFFFF;" vertex="1" parent="1">
                    <mxGeometry x="760" y="880" width="40" height="40" as="geometry"/>
                </mxCell>
                <mxCell id="99" value="G" style="ellipse;whiteSpace=wrap;html=1;aspect=fixed;fontSize=22;fillColor=#4D4D4D;strokeColor=#4D4D4D;fontColor=#FFFFFF;" vertex="1" parent="1">
                    <mxGeometry x="600" y="720" width="40" height="40" as="geometry"/>
                </mxCell>
                <mxCell id="100" value="G" style="ellipse;whiteSpace=wrap;html=1;aspect=fixed;fontSize=22;fillColor=#4D4D4D;strokeColor=#4D4D4D;fontColor=#FFFFFF;" vertex="1" parent="1">
                    <mxGeometry x="360" y="720" width="40" height="40" as="geometry"/>
                </mxCell>
                <mxCell id="101" value="G" style="ellipse;whiteSpace=wrap;html=1;aspect=fixed;fontSize=22;fillColor=#4D4D4D;strokeColor=#4D4D4D;fontColor=#FFFFFF;" vertex="1" parent="1">
                    <mxGeometry x="360" y="440" width="40" height="40" as="geometry"/>
                </mxCell>
                <mxCell id="102" value="B" style="ellipse;whiteSpace=wrap;html=1;aspect=fixed;fontSize=22;fillColor=#4D4D4D;strokeColor=#4D4D4D;fontColor=#FFFFFF;" vertex="1" parent="1">
                    <mxGeometry x="360" y="600" width="40" height="40" as="geometry"/>
                </mxCell>
            </root>
        </mxGraphModel>
    </diagram>
</mxfile>
